<?xml version="1.0" standalone="no"?><!DOCTYPE svg PUBLIC "-//W3C//DTD SVG 1.1//EN" "http://www.w3.org/Graphics/SVG/1.1/DTD/svg11.dtd"><svg t="1724484022302" class="icon" viewBox="0 0 1024 1024" version="1.1" xmlns="http://www.w3.org/2000/svg" p-id="11665" width="256" height="256" xmlns:xlink="http://www.w3.org/1999/xlink"><path d="M667.4432 323.4816H215.552c-62.3616 0-112.9472 50.5856-112.9472 112.9472v292.352c0 62.3616 50.5856 112.9472 112.9472 112.9472h451.8912c62.3616 0 112.9472-50.5856 112.9472-112.9472V436.4288c0-62.3616-50.5856-112.9472-112.9472-112.9472z m28.2624 405.2992c0 15.5648-12.6976 28.2624-28.2624 28.2624H215.552c-15.5648 0-28.2624-12.6976-28.2624-28.2624V436.4288c0-15.5648 12.6976-28.2624 28.2624-28.2624h451.8912c15.5648 0 28.2624 12.6976 28.2624 28.2624v292.352z" fill="#2c2c2c" p-id="11666"></path><path d="M893.3376 752.5376c-15.5648 0-28.2624-12.5952-28.2624-28.2624V323.4816c0-46.6944-34.6112-84.6848-77.2096-84.6848h-532.48c-15.5648 0-28.2624-12.5952-28.2624-28.2624 0-15.5648 12.5952-28.2624 28.2624-28.2624h532.48c73.728 0 133.632 63.3856 133.632 141.2096v400.896c0.1024 15.5648-12.4928 28.16-28.16 28.16z" fill="#2c2c2c" p-id="11667"></path></svg>