<?xml version="1.0" standalone="no"?>
<!DOCTYPE svg PUBLIC "-//W3C//DTD SVG 1.1//EN" "http://www.w3.org/Graphics/SVG/1.1/DTD/svg11.dtd">
<svg t="1724484319396" class="icon" viewBox="0 0 800 1024" version="1.1" xmlns="http://www.w3.org/2000/svg" p-id="14612" xmlns:xlink="http://www.w3.org/1999/xlink" width="256" height="256">
  <path d="M676.8 842.11H142.4a77.86 77.86 0 0 1-77.77-77.77V259.66A77.86 77.86 0 0 1 142.4 181.89h534.4a77.86 77.86 0 0 1 77.77 77.77v504.68A77.86 77.86 0 0 1 676.8 842.11zM142.4 254.45a5.21 5.21 0 0 0-5.21 5.21v504.68a5.21 5.21 0 0 0 5.21 5.21h534.4a5.21 5.21 0 0 0 5.21-5.21V259.66a5.21 5.21 0 0 0-5.21-5.21z" p-id="14613" fill="#f5f5f5"></path>
</svg>
