<?xml version="1.0" standalone="no"?><!DOCTYPE svg PUBLIC "-//W3C//DTD SVG 1.1//EN" "http://www.w3.org/Graphics/SVG/1.1/DTD/svg11.dtd"><svg t="1724484319396" class="icon" viewBox="0 0 1024 1024" version="1.1" xmlns="http://www.w3.org/2000/svg" p-id="14612" xmlns:xlink="http://www.w3.org/1999/xlink" width="256" height="256"><path d="M846 842.11H178a77.86 77.86 0 0 1-77.77-77.77V259.66A77.86 77.86 0 0 1 178 181.89h668a77.86 77.86 0 0 1 77.77 77.77v504.68A77.86 77.86 0 0 1 846 842.11zM178 254.45a5.21 5.21 0 0 0-5.21 5.21v504.68a5.21 5.21 0 0 0 5.21 5.21h668a5.21 5.21 0 0 0 5.21-5.21V259.66a5.21 5.21 0 0 0-5.21-5.21z" p-id="14613"></path></svg>